<svg width="10" height="15" viewBox="0 0 10 15" fill="none" xmlns="http://www.w3.org/2000/svg">
<path d="M0 4.44506C0 4.60582 0.0626259 4.75999 0.174099 4.87366C0.285572 4.98734 0.43676 5.0512 0.594407 5.0512H6.24553C6.10764 5.79325 5.71893 6.46249 5.14706 6.94242C4.5752 7.42236 3.8564 7.68259 3.11578 7.67782H0.594407C0.474026 7.68227 0.357568 7.72262 0.259454 7.79389C0.161341 7.86515 0.0858826 7.96421 0.0424261 8.07877C-0.00103043 8.19334 -0.0105765 8.31839 0.0149699 8.43843C0.0405163 8.55848 0.100034 8.66824 0.18615 8.75413L6.48805 14.8317C6.54441 14.8869 6.61091 14.9301 6.68372 14.959C6.75654 14.9878 6.83422 15.0017 6.91231 14.9998C6.99041 14.998 7.06737 14.9803 7.13876 14.948C7.21016 14.9157 7.27459 14.8693 7.32834 14.8115C7.43679 14.691 7.49496 14.5321 7.49052 14.3686C7.48608 14.205 7.41939 14.0497 7.30456 13.9355L2.08874 8.89011H3.11558C4.17321 8.90099 5.19812 8.51642 5.99659 7.80908C6.79507 7.10175 7.31179 6.12064 7.4491 5.0512H9.40559C9.56324 5.0512 9.71443 4.98734 9.8259 4.87366C9.93738 4.75999 10 4.60582 10 4.44506C10 4.2843 9.93738 4.13012 9.8259 4.01645C9.71443 3.90277 9.56324 3.83891 9.40559 3.83891H7.4491C7.30165 2.83566 6.83007 1.91129 6.10911 1.21229H9.40559C9.56324 1.21229 9.71443 1.14843 9.8259 1.03475C9.93738 0.921079 10 0.766903 10 0.606144C10 0.445385 9.93738 0.291209 9.8259 0.177535C9.71443 0.063861 9.56324 0 9.40559 0H0.594407C0.43676 0 0.285572 0.063861 0.174099 0.177535C0.0626259 0.291209 0 0.445385 0 0.606144C0 0.766903 0.0626259 0.921079 0.174099 1.03475C0.285572 1.14843 0.43676 1.21229 0.594407 1.21229H3.11578C3.8564 1.20752 4.5752 1.46776 5.14706 1.94769C5.71893 2.42762 6.10764 3.09686 6.24553 3.83891H0.594407C0.43676 3.83891 0.285572 3.90277 0.174099 4.01645C0.0626259 4.13012 0 4.2843 0 4.44506Z" fill="white"/>
</svg>
