<svg width="41" height="41" viewBox="0 0 41 41" fill="none" xmlns="http://www.w3.org/2000/svg">
<circle cx="20.5" cy="20.5" r="20.5" fill="white"/>
<path d="M20.6288 15.7074L11.667 23.1651V31.2142C11.667 31.4226 11.749 31.6225 11.8948 31.7698C12.0407 31.9172 12.2385 32 12.4448 32L17.8917 31.9858C18.0973 31.9847 18.2941 31.9015 18.4391 31.7542C18.5841 31.607 18.6655 31.4077 18.6655 31.2V26.4994C18.6655 26.291 18.7475 26.0911 18.8933 25.9437C19.0392 25.7964 19.237 25.7136 19.4432 25.7136H22.5541C22.7604 25.7136 22.9582 25.7964 23.104 25.9437C23.2499 26.0911 23.3318 26.291 23.3318 26.4994V31.1965C23.3315 31.2999 23.3514 31.4024 23.3903 31.498C23.4293 31.5936 23.4865 31.6805 23.5588 31.7538C23.631 31.827 23.7169 31.8851 23.8114 31.9247C23.9059 31.9644 24.0072 31.9848 24.1096 31.9848L29.5545 32C29.7608 32 29.9586 31.9172 30.1045 31.7698C30.2503 31.6225 30.3323 31.4226 30.3323 31.2142V23.1597L21.3725 15.7074C21.2671 15.6216 21.1359 15.5748 21.0006 15.5748C20.8653 15.5748 20.7341 15.6216 20.6288 15.7074ZM34.7847 20.7763L30.7211 17.3919V10.5894C30.7211 10.433 30.6597 10.2831 30.5503 10.1726C30.4409 10.0621 30.2925 10 30.1378 10H27.4158C27.2611 10 27.1128 10.0621 27.0034 10.1726C26.894 10.2831 26.8325 10.433 26.8325 10.5894V14.1554L22.4807 10.5378C22.0631 10.1905 21.539 10.0007 20.9982 10.0007C20.4573 10.0007 19.9333 10.1905 19.5157 10.5378L7.21168 20.7763C7.15262 20.8256 7.10375 20.8862 7.06788 20.9546C7.032 21.023 7.00982 21.0979 7.0026 21.175C6.99537 21.2521 7.00325 21.3299 7.02579 21.4039C7.04832 21.4779 7.08506 21.5466 7.13391 21.6063L8.3734 23.1288C8.42212 23.1886 8.48205 23.2382 8.54975 23.2746C8.61745 23.3111 8.69159 23.3336 8.76794 23.3411C8.84429 23.3485 8.92134 23.3407 8.99468 23.318C9.06802 23.2953 9.13621 23.2582 9.19535 23.2088L20.6288 13.6938C20.7341 13.608 20.8653 13.5612 21.0006 13.5612C21.1359 13.5612 21.2671 13.608 21.3725 13.6938L32.8064 23.2088C32.8654 23.2582 32.9335 23.2953 33.0067 23.3181C33.08 23.3409 33.1569 23.3488 33.2332 23.3415C33.3095 23.3342 33.3836 23.3118 33.4513 23.2756C33.5191 23.2393 33.579 23.1899 33.6278 23.1303L34.8673 21.6078C34.9161 21.5478 34.9527 21.4786 34.975 21.4043C34.9973 21.33 35.0048 21.2519 34.9971 21.1747C34.9894 21.0974 34.9667 21.0224 34.9302 20.9541C34.8938 20.8857 34.8443 20.8253 34.7847 20.7763Z" fill="#08445C"/>
</svg>
