<svg width="41" height="41" viewBox="0 0 41 41" fill="none" xmlns="http://www.w3.org/2000/svg">
<circle cx="20.5" cy="20.5" r="20.5" fill="white"/>
<path d="M31.7373 28.5679H8.87916C8.64599 28.5679 8.42237 28.6494 8.2575 28.7945C8.09263 28.9396 8 29.1364 8 29.3415V30.8889C8 31.0941 8.09263 31.2908 8.2575 31.4359C8.42237 31.581 8.64599 31.6625 8.87916 31.6625H31.7373C31.9705 31.6625 32.1941 31.581 32.359 31.4359C32.5239 31.2908 32.6165 31.0941 32.6165 30.8889V29.3415C32.6165 29.1364 32.5239 28.9396 32.359 28.7945C32.1941 28.6494 31.9705 28.5679 31.7373 28.5679ZM31.7373 22.3786H8.87916C8.64599 22.3786 8.42237 22.4601 8.2575 22.6052C8.09263 22.7503 8 22.9471 8 23.1522V24.6996C8 24.9048 8.09263 25.1015 8.2575 25.2466C8.42237 25.3917 8.64599 25.4732 8.87916 25.4732H31.7373C31.9705 25.4732 32.1941 25.3917 32.359 25.2466C32.5239 25.1015 32.6165 24.9048 32.6165 24.6996V23.1522C32.6165 22.9471 32.5239 22.7503 32.359 22.6052C32.1941 22.4601 31.9705 22.3786 31.7373 22.3786ZM31.7373 16.1893H8.87916C8.64599 16.1893 8.42237 16.2708 8.2575 16.4159C8.09263 16.561 8 16.7578 8 16.963V18.5103C8 18.7155 8.09263 18.9122 8.2575 19.0573C8.42237 19.2024 8.64599 19.2839 8.87916 19.2839H31.7373C31.9705 19.2839 32.1941 19.2024 32.359 19.0573C32.5239 18.9122 32.6165 18.7155 32.6165 18.5103V16.963C32.6165 16.7578 32.5239 16.561 32.359 16.4159C32.1941 16.2708 31.9705 16.1893 31.7373 16.1893ZM31.7373 10H8.87916C8.64599 10 8.42237 10.0815 8.2575 10.2266C8.09263 10.3717 8 10.5685 8 10.7737V12.321C8 12.5262 8.09263 12.723 8.2575 12.868C8.42237 13.0131 8.64599 13.0946 8.87916 13.0946H31.7373C31.9705 13.0946 32.1941 13.0131 32.359 12.868C32.5239 12.723 32.6165 12.5262 32.6165 12.321V10.7737C32.6165 10.5685 32.5239 10.3717 32.359 10.2266C32.1941 10.0815 31.9705 10 31.7373 10Z" fill="#08445C"/>
</svg>
