<svg width="42" height="58" viewBox="0 0 42 58" fill="none" xmlns="http://www.w3.org/2000/svg">
<path d="M5.65984 50.793C6.08952 50.793 6.46973 50.8607 6.80046 50.9961C7.13379 51.1315 7.41374 51.319 7.6403 51.5586C7.86947 51.7956 8.04265 52.0755 8.15984 52.3984C8.27963 52.7214 8.33952 53.069 8.33952 53.4414C8.33952 53.8138 8.27963 54.1615 8.15984 54.4844C8.04265 54.8073 7.87077 55.0885 7.64421 55.3281C7.41765 55.5677 7.139 55.7565 6.80827 55.8945C6.47754 56.0326 6.09864 56.1016 5.67155 56.1016C5.23926 56.1016 4.85515 56.0339 4.51921 55.8984C4.18327 55.763 3.90072 55.5768 3.67155 55.3398C3.44239 55.1003 3.26791 54.819 3.14812 54.4961C3.02833 54.1706 2.96843 53.819 2.96843 53.4414C2.96843 53.069 3.02702 52.7227 3.14421 52.4023C3.2614 52.0794 3.43327 51.7995 3.65984 51.5625C3.889 51.3229 4.17025 51.1354 4.50359 51C4.83952 50.862 5.22494 50.793 5.65984 50.793ZM5.65593 51.5508C5.43197 51.5508 5.23926 51.5938 5.0778 51.6797C4.91895 51.7656 4.78744 51.8906 4.68327 52.0547C4.58171 52.2161 4.50619 52.4141 4.45671 52.6484C4.40984 52.8802 4.3864 53.1419 4.3864 53.4336C4.3864 53.7383 4.41244 54.0091 4.46452 54.2461C4.51661 54.4831 4.59473 54.6836 4.6989 54.8477C4.80306 55.0091 4.93458 55.1328 5.09343 55.2188C5.25228 55.3021 5.43978 55.3438 5.65593 55.3438C5.87468 55.3438 6.06348 55.3008 6.22234 55.2148C6.38379 55.1263 6.5153 55 6.61687 54.8359C6.72103 54.6719 6.79786 54.4727 6.84734 54.2383C6.89942 54.0013 6.92546 53.7344 6.92546 53.4375C6.92546 52.8281 6.82129 52.362 6.61296 52.0391C6.40463 51.7135 6.08562 51.5508 5.65593 51.5508ZM13.4294 54.5859C13.4528 54.7161 13.4749 54.8294 13.4958 54.9258C13.5192 55.0195 13.5453 55.0977 13.5739 55.1602C13.6051 55.2227 13.6416 55.2695 13.6833 55.3008C13.7275 55.3294 13.7809 55.3438 13.8434 55.3438C13.9346 55.3438 14.0036 55.3177 14.0505 55.2656C14.0973 55.2135 14.1208 55.125 14.1208 55L14.5739 54.9453C14.5739 54.9479 14.5739 54.9557 14.5739 54.9688C14.5739 54.9792 14.5726 54.9922 14.57 55.0078C14.57 55.0208 14.57 55.0339 14.57 55.0469C14.57 55.0573 14.57 55.0638 14.57 55.0664C14.5648 55.2487 14.5361 55.4049 14.4841 55.5352C14.4346 55.6654 14.363 55.7734 14.2692 55.8594C14.1755 55.9427 14.0622 56.0039 13.9294 56.043C13.7992 56.082 13.6507 56.1016 13.4841 56.1016C13.2835 56.1016 13.1091 56.0729 12.9606 56.0156C12.8122 55.9583 12.6846 55.8724 12.5778 55.7578C12.471 55.6432 12.3825 55.5 12.3122 55.3281C12.2419 55.1536 12.1846 54.9492 12.1403 54.7148C12.1012 54.5065 12.0544 54.3333 11.9997 54.1953C11.9476 54.0573 11.889 53.9427 11.8239 53.8516C11.7536 53.7943 11.669 53.7565 11.57 53.7383C11.471 53.7174 11.3486 53.707 11.2028 53.707H10.863L10.8591 55.0234C10.8591 55.0833 10.8643 55.1328 10.8747 55.1719C10.8877 55.2083 10.9085 55.237 10.9372 55.2578C10.9658 55.276 11.0049 55.2891 11.0544 55.2969C11.1038 55.3021 11.1676 55.3047 11.2458 55.3047H11.4176V56C11.3213 56 11.2249 56 11.1286 56C11.0348 56 10.9385 56 10.8395 56C10.7406 55.9974 10.6351 55.9961 10.5231 55.9961C10.4137 55.9935 10.2953 55.9922 10.1676 55.9922C10.0426 55.9922 9.92806 55.9935 9.8239 55.9961C9.72234 55.9961 9.62598 55.9961 9.53484 55.9961C9.44369 55.9961 9.35515 55.9974 9.26921 56C9.18588 56 9.09994 56 9.0114 56V55.3047H9.1364C9.24838 55.3047 9.33431 55.2969 9.39421 55.2812C9.45671 55.263 9.50098 55.237 9.52702 55.2031C9.55567 55.1693 9.57129 55.1276 9.5739 55.0781C9.57911 55.0286 9.58171 54.9714 9.58171 54.9062V51.9883C9.58171 51.9154 9.5778 51.8542 9.56999 51.8047C9.56478 51.7526 9.54655 51.7109 9.5153 51.6797C9.48666 51.6458 9.44109 51.6224 9.37859 51.6094C9.31609 51.5938 9.22885 51.5859 9.11687 51.5859H9.0114V50.8906H11.5075C11.6976 50.8906 11.8851 50.8971 12.07 50.9102C12.2575 50.9232 12.4346 50.9492 12.6012 50.9883C12.7705 51.0247 12.9268 51.0755 13.07 51.1406C13.2158 51.2057 13.3408 51.2904 13.445 51.3945C13.5518 51.4987 13.6351 51.625 13.695 51.7734C13.7549 51.9219 13.7848 52.0964 13.7848 52.2969C13.7848 52.4375 13.7614 52.5716 13.7145 52.6992C13.6676 52.8242 13.5986 52.9375 13.5075 53.0391C13.419 53.1406 13.3096 53.2279 13.1794 53.3008C13.0518 53.3737 12.9059 53.4284 12.7419 53.4648C12.82 53.5013 12.8942 53.5469 12.9645 53.6016C13.0374 53.6562 13.1038 53.7266 13.1637 53.8125C13.2236 53.8984 13.2757 54.0039 13.32 54.1289C13.3669 54.2539 13.4033 54.4062 13.4294 54.5859ZM10.8591 53.1406H11.4645C11.639 53.1406 11.79 53.1289 11.9176 53.1055C12.0479 53.0794 12.1546 53.0365 12.238 52.9766C12.3213 52.9167 12.3838 52.8385 12.4255 52.7422C12.4671 52.6458 12.488 52.5247 12.488 52.3789C12.488 52.2253 12.4632 52.099 12.4137 52C12.3643 51.8984 12.2913 51.819 12.195 51.7617C12.1012 51.7018 11.9828 51.6615 11.8395 51.6406C11.6989 51.6172 11.5348 51.6055 11.3473 51.6055H10.8591V53.1406ZM16.9372 50.8906C18.0466 50.8906 18.8734 51.1016 19.4176 51.5234C19.9619 51.9427 20.2341 52.5742 20.2341 53.418C20.2341 53.9049 20.1572 54.3138 20.0036 54.6445C19.8525 54.9727 19.6364 55.2383 19.3551 55.4414C19.0765 55.6419 18.7393 55.7852 18.3434 55.8711C17.9502 55.957 17.5101 56 17.0231 56H14.7497V55.3047H14.9411C15.0218 55.3047 15.0856 55.2943 15.1325 55.2734C15.1794 55.25 15.2145 55.2201 15.238 55.1836C15.2614 55.1445 15.2757 55.099 15.2809 55.0469C15.2887 54.9948 15.2926 54.9375 15.2926 54.875C15.2926 54.8672 15.2926 54.8203 15.2926 54.7344C15.2926 54.6458 15.2913 54.5326 15.2887 54.3945C15.2887 54.2565 15.2887 54.1003 15.2887 53.9258C15.2887 53.7513 15.2887 53.5742 15.2887 53.3945V51.957C15.2887 51.9023 15.2835 51.8529 15.2731 51.8086C15.2653 51.7643 15.2484 51.7253 15.2223 51.6914C15.1989 51.6576 15.1637 51.6315 15.1169 51.6133C15.0726 51.5924 15.014 51.582 14.9411 51.582H14.7497V50.8906H16.9372ZM16.57 55.2422H17.1325C17.419 55.2422 17.669 55.207 17.8825 55.1367C18.0986 55.0664 18.277 54.957 18.4176 54.8086C18.5609 54.6576 18.6676 54.4661 18.738 54.2344C18.8109 54.0026 18.8473 53.7253 18.8473 53.4023C18.8473 52.793 18.7054 52.349 18.4216 52.0703C18.1403 51.7891 17.7093 51.6484 17.1286 51.6484H16.57V55.2422ZM25.4137 50.8906V52.3125H24.652V52.1523C24.652 52.0273 24.639 51.931 24.613 51.8633C24.5869 51.7956 24.5505 51.7474 24.5036 51.7188C24.4567 51.6875 24.3994 51.6693 24.3317 51.6641C24.264 51.6589 24.1885 51.6562 24.1051 51.6562H22.7966V53.0742H23.5661C23.6234 53.0742 23.6716 53.0716 23.7106 53.0664C23.7523 53.0586 23.7874 53.043 23.8161 53.0195C23.8447 52.9961 23.8682 52.9596 23.8864 52.9102C23.9072 52.8607 23.9242 52.793 23.9372 52.707H24.2692V54.0898H23.9333C23.9176 54.0065 23.9007 53.9401 23.8825 53.8906C23.8643 53.8411 23.8408 53.8047 23.8122 53.7812C23.7835 53.7552 23.7497 53.7396 23.7106 53.7344C23.6716 53.7266 23.6234 53.7227 23.5661 53.7227H22.7966V55.2422H24.1598C24.2562 55.2422 24.3369 55.2357 24.402 55.2227C24.4671 55.2096 24.5192 55.181 24.5583 55.1367C24.5999 55.0924 24.6299 55.0299 24.6481 54.9492C24.6663 54.8659 24.6755 54.7552 24.6755 54.6172V54.4922H25.4294V56H20.9489V55.3047H21.238C21.3057 55.3047 21.3578 55.293 21.3942 55.2695C21.4333 55.2461 21.4619 55.2135 21.4801 55.1719C21.501 55.1302 21.5127 55.0833 21.5153 55.0312C21.5205 54.9792 21.5231 54.9232 21.5231 54.8633V52.0508C21.5231 51.9935 21.5218 51.9362 21.5192 51.8789C21.5166 51.8216 21.5062 51.7708 21.488 51.7266C21.4697 51.6823 21.4411 51.6471 21.402 51.6211C21.3656 51.5924 21.3109 51.5781 21.238 51.5781H20.9645V50.8906H25.4137ZM30.5153 54.5859C30.5387 54.7161 30.5609 54.8294 30.5817 54.9258C30.6051 55.0195 30.6312 55.0977 30.6598 55.1602C30.6911 55.2227 30.7275 55.2695 30.7692 55.3008C30.8135 55.3294 30.8669 55.3438 30.9294 55.3438C31.0205 55.3438 31.0895 55.3177 31.1364 55.2656C31.1833 55.2135 31.2067 55.125 31.2067 55L31.6598 54.9453C31.6598 54.9479 31.6598 54.9557 31.6598 54.9688C31.6598 54.9792 31.6585 54.9922 31.6559 55.0078C31.6559 55.0208 31.6559 55.0339 31.6559 55.0469C31.6559 55.0573 31.6559 55.0638 31.6559 55.0664C31.6507 55.2487 31.6221 55.4049 31.57 55.5352C31.5205 55.6654 31.4489 55.7734 31.3551 55.8594C31.2614 55.9427 31.1481 56.0039 31.0153 56.043C30.8851 56.082 30.7367 56.1016 30.57 56.1016C30.3695 56.1016 30.195 56.0729 30.0466 56.0156C29.8981 55.9583 29.7705 55.8724 29.6637 55.7578C29.557 55.6432 29.4684 55.5 29.3981 55.3281C29.3278 55.1536 29.2705 54.9492 29.2262 54.7148C29.1872 54.5065 29.1403 54.3333 29.0856 54.1953C29.0335 54.0573 28.9749 53.9427 28.9098 53.8516C28.8395 53.7943 28.7549 53.7565 28.6559 53.7383C28.557 53.7174 28.4346 53.707 28.2887 53.707H27.9489L27.945 55.0234C27.945 55.0833 27.9502 55.1328 27.9606 55.1719C27.9736 55.2083 27.9945 55.237 28.0231 55.2578C28.0518 55.276 28.0908 55.2891 28.1403 55.2969C28.1898 55.3021 28.2536 55.3047 28.3317 55.3047H28.5036V56C28.4072 56 28.3109 56 28.2145 56C28.1208 56 28.0244 56 27.9255 56C27.8265 55.9974 27.721 55.9961 27.6091 55.9961C27.4997 55.9935 27.3812 55.9922 27.2536 55.9922C27.1286 55.9922 27.014 55.9935 26.9098 55.9961C26.8083 55.9961 26.7119 55.9961 26.6208 55.9961C26.5296 55.9961 26.4411 55.9974 26.3551 56C26.2718 56 26.1859 56 26.0973 56V55.3047H26.2223C26.3343 55.3047 26.4203 55.2969 26.4801 55.2812C26.5426 55.263 26.5869 55.237 26.613 55.2031C26.6416 55.1693 26.6572 55.1276 26.6598 55.0781C26.665 55.0286 26.6676 54.9714 26.6676 54.9062V51.9883C26.6676 51.9154 26.6637 51.8542 26.6559 51.8047C26.6507 51.7526 26.6325 51.7109 26.6012 51.6797C26.5726 51.6458 26.527 51.6224 26.4645 51.6094C26.402 51.5938 26.3148 51.5859 26.2028 51.5859H26.0973V50.8906H28.5934C28.7835 50.8906 28.971 50.8971 29.1559 50.9102C29.3434 50.9232 29.5205 50.9492 29.6872 50.9883C29.8565 51.0247 30.0127 51.0755 30.1559 51.1406C30.3018 51.2057 30.4268 51.2904 30.5309 51.3945C30.6377 51.4987 30.721 51.625 30.7809 51.7734C30.8408 51.9219 30.8708 52.0964 30.8708 52.2969C30.8708 52.4375 30.8473 52.5716 30.8005 52.6992C30.7536 52.8242 30.6846 52.9375 30.5934 53.0391C30.5049 53.1406 30.3955 53.2279 30.2653 53.3008C30.1377 53.3737 29.9919 53.4284 29.8278 53.4648C29.9059 53.5013 29.9801 53.5469 30.0505 53.6016C30.1234 53.6562 30.1898 53.7266 30.2497 53.8125C30.3096 53.8984 30.3617 54.0039 30.4059 54.1289C30.4528 54.2539 30.4893 54.4062 30.5153 54.5859ZM27.945 53.1406H28.5505C28.7249 53.1406 28.876 53.1289 29.0036 53.1055C29.1338 53.0794 29.2406 53.0365 29.3239 52.9766C29.4072 52.9167 29.4697 52.8385 29.5114 52.7422C29.5531 52.6458 29.5739 52.5247 29.5739 52.3789C29.5739 52.2253 29.5492 52.099 29.4997 52C29.4502 51.8984 29.3773 51.819 29.2809 51.7617C29.1872 51.7018 29.0687 51.6615 28.9255 51.6406C28.7848 51.6172 28.6208 51.6055 28.4333 51.6055H27.945V53.1406ZM35.738 52.3164H34.988C34.9775 52.2826 34.9684 52.25 34.9606 52.2188C34.9554 52.1875 34.9489 52.1562 34.9411 52.125C34.8968 51.8932 34.7979 51.7161 34.6442 51.5938C34.4906 51.4688 34.2575 51.4062 33.945 51.4062C33.8174 51.4062 33.7028 51.4219 33.6012 51.4531C33.4997 51.4844 33.4124 51.5286 33.3395 51.5859C33.2692 51.6432 33.2145 51.7109 33.1755 51.7891C33.1364 51.8672 33.1169 51.9544 33.1169 52.0508C33.1169 52.1992 33.1624 52.3216 33.2536 52.418C33.3447 52.5143 33.4684 52.6016 33.6247 52.6797C33.7809 52.7552 33.9619 52.8294 34.1676 52.9023C34.3734 52.9727 34.5908 53.0573 34.82 53.1562C34.971 53.2188 35.113 53.293 35.2458 53.3789C35.3812 53.4622 35.4997 53.5612 35.6012 53.6758C35.7028 53.7878 35.7822 53.9193 35.8395 54.0703C35.8994 54.2188 35.9294 54.3893 35.9294 54.582C35.9294 54.7878 35.889 54.9831 35.8083 55.168C35.7275 55.3503 35.6117 55.5117 35.4606 55.6523C35.3122 55.7904 35.1299 55.8997 34.9137 55.9805C34.6976 56.0612 34.4541 56.1016 34.1833 56.1016C34.0531 56.1016 33.9229 56.0898 33.7926 56.0664C33.665 56.0456 33.5413 56.0143 33.4216 55.9727C33.3044 55.931 33.1937 55.8802 33.0895 55.8203C32.988 55.7604 32.8981 55.6927 32.82 55.6172V56H31.9645V54.4141H32.7145C32.7301 54.4818 32.7458 54.5443 32.7614 54.6016C32.7874 54.7344 32.8252 54.8529 32.8747 54.957C32.9268 55.0586 32.9958 55.1445 33.0817 55.2148C33.1676 55.2852 33.2731 55.3385 33.3981 55.375C33.5231 55.4115 33.6729 55.4297 33.8473 55.4297C33.9801 55.4297 34.0999 55.4141 34.2067 55.3828C34.3161 55.3516 34.4098 55.3073 34.488 55.25C34.5661 55.1901 34.626 55.1172 34.6676 55.0312C34.7093 54.9427 34.7301 54.8438 34.7301 54.7344C34.7301 54.5859 34.6846 54.4622 34.5934 54.3633C34.5049 54.2617 34.3864 54.1732 34.238 54.0977C34.0921 54.0221 33.9268 53.9531 33.7419 53.8906C33.557 53.8255 33.3695 53.7539 33.1794 53.6758C32.7679 53.5065 32.4619 53.3073 32.2614 53.0781C32.0635 52.849 31.9645 52.5716 31.9645 52.2461C31.9645 52.0404 32.0023 51.849 32.0778 51.6719C32.1559 51.4948 32.2679 51.3411 32.4137 51.2109C32.5622 51.0807 32.7419 50.9792 32.9528 50.9062C33.1637 50.8307 33.4046 50.793 33.6755 50.793C33.9098 50.793 34.1403 50.8216 34.3669 50.8789C34.596 50.9362 34.8109 51.0443 35.0114 51.2031C35.0114 51.1667 35.0101 51.1302 35.0075 51.0938C35.0075 51.0573 35.0075 51.0234 35.0075 50.9922V50.8867C35.0231 50.8867 35.057 50.8867 35.1091 50.8867C35.1637 50.8867 35.2262 50.888 35.2966 50.8906C35.3695 50.8906 35.445 50.8906 35.5231 50.8906C35.6038 50.8906 35.6755 50.8906 35.738 50.8906V52.3164Z" fill="white"/>
<circle cx="21.5" cy="20.5" r="20.5" fill="white"/>
<path d="M31.6625 12.0884V29.5741C31.6625 30.7488 30.7438 31.6625 29.5736 31.6625H12.0889C10.9332 31.6577 10 30.7585 10 29.5693V12.0884C10 10.9234 10.9091 10 12.0889 10H29.5785C30.739 10 31.6625 10.9088 31.6625 12.0884ZM29.8589 29.5693V12.0884C29.8589 11.9434 29.7332 11.808 29.5785 11.808H29.1288L23.7954 15.4144L20.8313 13.0021L17.872 15.4144L12.5386 11.8032H12.0889C11.9342 11.8032 11.8084 11.9386 11.8084 12.0836V29.5693C11.8084 29.7143 11.9342 29.8497 12.0889 29.8497H29.5785C29.7332 29.8545 29.8589 29.7191 29.8589 29.5693ZM17.2627 17.4448V19.2335H13.7087V17.4448H17.2627ZM17.2627 21.0416V22.8448H13.7087V21.0416H17.2627ZM17.7995 13.9206L20.4106 11.808H14.6807L17.7995 13.9206ZM27.9538 17.4448V19.2335H18.4764V17.4448H27.9538ZM27.9538 21.0416V22.8448H18.4764V21.0416H27.9538ZM23.863 13.9206L26.9819 11.808H21.2568L23.863 13.9206ZM27.9538 24.6479V26.4511H23.1474V24.6479H27.9538Z" fill="#08445C"/>
</svg>
