<svg width="41" height="41" viewBox="0 0 41 41" fill="none" xmlns="http://www.w3.org/2000/svg">
<circle cx="20.5" cy="20.5" r="20.5" fill="white"/>
<path d="M30.6625 12.0884V29.5741C30.6625 30.7488 29.7438 31.6625 28.5736 31.6625H11.0889C9.93323 31.6577 9 30.7585 9 29.5693V12.0884C9 10.9234 9.90905 10 11.0889 10H28.5785C29.739 10 30.6625 10.9088 30.6625 12.0884ZM28.8589 29.5693V12.0884C28.8589 11.9434 28.7332 11.808 28.5785 11.808H28.1288L22.7954 15.4144L19.8313 13.0021L16.872 15.4144L11.5386 11.8032H11.0889C10.9342 11.8032 10.8084 11.9386 10.8084 12.0836V29.5693C10.8084 29.7143 10.9342 29.8497 11.0889 29.8497H28.5785C28.7332 29.8545 28.8589 29.7191 28.8589 29.5693ZM16.2627 17.4448V19.2335H12.7087V17.4448H16.2627ZM16.2627 21.0416V22.8448H12.7087V21.0416H16.2627ZM16.7995 13.9206L19.4106 11.808H13.6807L16.7995 13.9206ZM26.9538 17.4448V19.2335H17.4764V17.4448H26.9538ZM26.9538 21.0416V22.8448H17.4764V21.0416H26.9538ZM22.863 13.9206L25.9819 11.808H20.2568L22.863 13.9206ZM26.9538 24.6479V26.4511H22.1474V24.6479H26.9538Z" fill="#08445C"/>
</svg>
