<svg width="55" height="55" viewBox="0 0 55 55" fill="none" xmlns="http://www.w3.org/2000/svg">
<path d="M48.125 13.0601H5.15625V11.3126L42.9688 8.23701V11.3126H48.125V6.07011C48.125 2.22562 45.0622 -0.472513 41.3222 0.0692104L6.80625 5.08103C3.06281 5.62625 0 9.2156 0 13.0601V48.01C0 49.8639 0.724328 51.6418 2.01364 52.9527C3.30295 54.2636 5.05164 55 6.875 55H48.125C49.9484 55 51.697 54.2636 52.9864 52.9527C54.2757 51.6418 55 49.8639 55 48.01V20.0501C55 18.1962 54.2757 16.4183 52.9864 15.1074C51.697 13.7965 49.9484 13.0601 48.125 13.0601ZM42.9688 37.546C42.2914 37.5458 41.6207 37.4099 40.995 37.1461C40.3693 36.8824 39.8008 36.4959 39.322 36.0088C38.8432 35.5216 38.4635 34.9434 38.2045 34.307C37.9455 33.6707 37.8123 32.9887 37.8125 32.3C37.8127 31.6113 37.9464 30.9295 38.2058 30.2933C38.4652 29.6571 38.8453 29.0791 39.3244 28.5923C39.8036 28.1055 40.3723 27.7194 40.9982 27.4561C41.6241 27.1927 42.2948 27.0573 42.9722 27.0575C44.3402 27.058 45.6519 27.611 46.6189 28.5948C47.5859 29.5786 48.1289 30.9127 48.1284 32.3035C48.128 33.6944 47.5841 35.0281 46.6165 36.0112C45.6489 36.9944 44.3367 37.5465 42.9688 37.546Z" fill="white"/>
</svg>
